<?xml version="1.0" encoding="UTF-8"?>
<!DOCTYPE svg PUBLIC "-//W3C//DTD SVG 1.1//EN" "http://www.w3.org/Graphics/SVG/1.1/DTD/svg11.dtd">
<!-- Creator: CorelDRAW 2019 (64-Bit) -->
<svg xmlns="http://www.w3.org/2000/svg" xml:space="preserve" width="29.2571mm" height="3.4977mm" version="1.1" style="shape-rendering:geometricPrecision; text-rendering:geometricPrecision; image-rendering:optimizeQuality; fill-rule:evenodd; clip-rule:evenodd"
viewBox="0 0 601.73 71.94"
 xmlns:xlink="http://www.w3.org/1999/xlink">
 <defs>
  <style type="text/css">
   <![CDATA[
    .fil0 {fill:#094EB4;fill-rule:nonzero}
   ]]>
  </style>
 </defs>
 <g id="Plan_x0020_1">
  <metadata id="CorelCorpID_0Corel-Layer"/>
  <path class="fil0" d="M25.41 3.1l-1.39 -0.1 0.49 -2.99 0.9 3.1zm2.48 2.38l-2.38 -1.19 1.19 -1 1.19 2.19zm-5.17 -1.6l0 0.21 -0.51 1.29 -0.59 -0.7 1.1 -0.8zm15.83 59.2l-1.19 5.88 -2.59 -2.79 -2.6 3.18 -1.79 -1.7 -0.49 0.1 -1.9 1.9 -1.68 -1.39 -3.2 0.99 -1.29 -1.79 -0.49 2.69 -1.6 -3.1 -0.39 2.3 -1.8 -2.79 -1.79 1.19 -0.8 -0.99 -5.88 -2.5 -1.6 1 -1.29 -5.78 -2.89 -3.79 -0.9 0.7 -1.29 -2.58 0.1 -0.9 -1.19 -3.28 1.5 -4.88 0.59 1.79c0.8,-0.26 1.19,-1.02 1.19,-2.3l3.49 -2.28 2.4 -2.09 1.6 -0.59 3.59 0.78 1.09 -2.48 4.39 -1.5 1.5 0.6 1.58 -0.29 0 -7.59 -1.09 -18.23 1.99 3.9 1 -0.7 -1 -4.9 0.7 -4.78 2.69 2.3 -0.49 0.9 1.5 2.19 1.19 -3.5 1.7 2.89 0.1 -2.38 5.27 4.19 -0.29 3.49 0.8 2.3 -0.2 1.5c0,0.19 0.53,0.99 1.6,2.38l-4.8 10.48c0.27,0.26 0.87,0.63 1.8,1.09l-0.3 -1.29 1.9 -3.3 -0.41 -0.88 1.11 -1.21 -1.11 7.08 -0.9 1.11c0.2,0.53 0.27,0.99 0.2,1.39l-0.8 0 -0.88 9.27 0.59 3.88 -0.31 1.7 0.8 5.68 1.19 2.89 -0.8 2.3 0.8 0.88 1.5 -0.19 0.41 0 0.19 1.89zm-4.29 -50.92l-0.08 -0.8 0 -0.1 -0.61 -0.31 0 1.7 0.2 0 0.49 -0.49zm-9.35 3.98l-0.9 1.39 0.49 1 0.41 -2.4zm11.55 3.49l-1.99 -2.48 -0.29 2.38 0.19 0 1.7 1 0.39 -0.9zm-3.78 2.09l-0.2 -0.99c-1.07,1.33 -1.63,2.24 -1.7,2.79l0.41 0.9 1.5 -2.7zm-2.6 1.6l-1.89 0.2 1 1.68 0.88 -1.89zm-2.38 7.87l-0.8 -0.39 -0.21 0 0 1.48 1 -1.09zm6.67 4.39l-0.39 -1.29c-0.14,-0.41 -0.49,-0.97 -1.1,-1.7l0 0.8 1.5 2.19zm-8.37 2.79l-0.49 -0.31 -0.7 1.6 -0.1 0c-1.19,-0.87 -2.09,-1.63 -2.69,-2.3l0.39 2.3 1.1 0.59 0.08 1.5 2.4 -3.38zm-19.03 6.38c-0.14,-0.2 -0.21,-0.41 -0.21,-0.59 0,-0.2 -0.03,-0.48 -0.1,-0.8l-0.8 1.5 -0.99 0.29 1.29 1.6 0.8 -1.99zm17.53 17.14l-0.7 -11.46 0.59 -1.99 -0.8 -0.8 0.21 -0.9 -2.19 -2.69 -3.28 2.79 -1.1 -0.41 0 -1.48 -3.18 4.88 -1.99 -1.9 -0.49 1.5 2.98 6.28 0.9 -0.8 1.09 2.81 6.89 3.49 -0.51 1.39 1.6 -0.7zm-19.83 -13.06l-0.7 -2.48 -0.7 1.89 0.31 0.9 1.09 0 0 -0.31zm28.4 7.38l-0.59 -6.89 -1 2.5 1.39 5.68 0.2 -1.29zm-21.82 -3.4l0 -1.19 -0.31 1.5 0.31 -0.31zm-7.98 0.2l-0.29 -1.09 -1.5 -0.1 0.88 1.79 0.9 -0.59zm24.91 5.19l-0.8 -0.8 -0.29 0.1 -0.31 0.7 1.19 1.6 0.2 -1.6zm-5.68 -51.43l-0.7 2.6 -0.49 -2.3 1.19 -0.31zm19.93 55.41l-0.59 1.99 -1.29 -1.89 0.7 -0.8 1.19 0.7zm0 3.1l-0.8 0.7 -2.89 1.19 1.39 -3.39 2.3 1.5zm41.05 -9.68l-1.5 2.5 -1.39 -0.9 -3.49 4.49 -1.29 -0.59 -2.01 3.08 -5.68 4.39 -0.39 -1.79 -0.8 -0.8 -0.31 0 -0.29 0.9 0.9 3.08 0 0.2 -1.5 -0.49 -4.88 2.28 -3.1 -1.79 1.29 -1.7 -1.89 0.9 -3.59 0.39 -1.19 -0.88 -3.49 -6.68 -0.71 0.2 -2.87 -3.49 0 -0.9 1.48 1.29 -0.19 -2.3 0.99 -2.28 -1.29 -1.5 -1.19 1.39 0 -1.5 -1 0.1 1.4 -6.48 -1.19 -2.99 1.19 -6.38 -1.09 -0.7 2.48 -1.68 1.29 -2.6 -0.7 -1.29 0 -0.8 1.6 0.41 2.4 -2.6 0.39 0.8 -0.39 1.9 1.09 0.78c0.48,-2.06 1,-3.64 1.6,-4.78l1.89 2.5 1.8 -3.89 0.9 0.9 2.38 -1.6 1 0.7 1.5 -1.09 0.99 1.58 1.21 -1.09 6.77 1.89 3.2 1.39 3.57 2.7 0.9 -0.61 2.69 4.59 -0.09 3.08 -0.7 1.41 -0.8 -0.61 -2.3 3.49 -0.7 -0.19 -3.3 3.98c-0.39,0.07 -1.09,-0.29 -2.09,-1.09l-0.39 0.8 0.39 1.19 -0.88 1.09 -1.39 -0.19 -0.8 1.29 -1.8 -1.29 -9.17 5.07 0 0.2 0.2 -2.48 -1 1.09 -1.19 -1 2.3 5.6 -0.8 2.28 3.98 0.2 0.1 2.89 1 -1.99 0.8 0.2 3.28 -1.6 0.8 0.2 10.25 -10.66 1.21 0.7 -1.39 0.7 -1 1.48c1.46,-0.59 2.23,-1.02 2.3,-1.29l0.8 2.7 0.29 -1.8 1.1 -0.39 0.29 0.99 -0.6 2.99 1.7 1.29 0.1 0.49zm-10.97 -17.33c-2.26,-1.8 -3.94,-3.35 -5.08,-4.68 -0.46,-0.55 -1.26,-0.9 -2.38,-1.1l-3.3 2.69 -0.29 -0.99 -1.11 0.8 -1.19 -0.2 1.6 -2.09 -6.19 4.57 1.21 2.7 -0.31 4.27 0.1 0.9 11.46 -3.18 1.6 -4.1 1.89 1.7 0.1 -1.29 1.89 0zm-10.66 -2.19l-1.99 0.39 -0.2 0.9 -1.5 -1.79 1.7 0 1.99 0.49zm19.13 -2.09l-0.39 0 -0.9 1.39 1.19 0.6 0.1 -1.99zm-32.58 9.58l-2.3 -2.81 -0.19 0 0.39 1.6c0.07,0.48 0.41,1.26 1,2.4l1.09 -1.19zm2.5 0.08l-0.51 -0.6 -0.8 0.41c-0.19,0.12 -0.68,0.73 -1.48,1.79l2.79 -1.6zm17.14 2.89l-1.6 0.3 -0.1 0 -0.2 -1 -1.89 2.3 2.38 -0.39 1.41 -1.21zm-11.07 6.58l-1.79 -3.28 -1.21 1.5 0.8 0.99 2.19 0.8zm0.1 1.6l-0.1 -0.31 -0.49 -0.2 -1 0.9 0.59 0.8 1 -1.19zm-3.79 11.46l0 -0.9 -1.5 0 1 2.59 0.49 -1.68zm-7.77 -33.79l-0.39 1.5 0.39 1.29 -1.68 -0.7 1.29 -2.89 0.39 0.8zm86.7 -4.39l-1.6 5.39 -3.1 2.59 -10.46 -2.19 -1.79 -0.99 -1.5 0.88 -6.99 1.11 -2.09 2.19 -1.09 -0.3 0.21 4.69 1.29 1.99 0.9 -2.89 0.6 1.39 1.99 0.49 1.7 -0.7 5.17 1.91 0 0.68 0.8 2.01 3.28 -0.9 1 1.19 4.39 1.99 2.58 3.1 2.09 0.2 0 1.19 1.8 4.59 -1.29 1.29 0.49 1.19 -2.09 2.69 -1 -0.8 -3.28 2.01 -1.6 2.09 -1.09 -1 -6.48 2.79 0 1.21 -2.09 -1.41 -2.09 3.1 -0.41 -2.48 -0.8 -0.31 -1.79 0.7 -1.1 2.09 -2.48 -1.09 -1.6 1.5 -2.09 -2.09 -0.49 -0.1 -2.19 1.79 -3.18 -3.38 -3.1 3.1 -1.19 -7.09 0.19 -1.99 2.09 0.1 1.1 -0.99 -0.41 -1.31 5.99 1.9c0.46,-0.14 1.16,-0.56 2.09,-1.29l2.48 1.39 0 -0.1 -0.29 1.19c1.92,-0.8 3.06,-1.12 3.39,-1l4.67 1.21 1.39 -0.41 -0.08 -0.8 1.58 -2.38 1.31 0.9 0.39 -1.39 2.09 -0.31 -2.59 -1.7 -2.6 -4.37 0 1.89 -1.19 0.39 -4.39 -3.38 -0.59 0.49 -4.98 -1.48 -0.29 0.88 -5.88 -5.87 -1.29 -6.38 -1 4.47 -3.18 -8.47 2.89 4.18 2.18 -9.17 0.41 1.6 2.09 -3.69 3.39 -0.99 3.38 0.29 3.4 -1.39 1.29 1.6 -0.51 0.39 0.8 0.9 4.88 -4.59 3.3 1.6 2.79 -1.6 0.99 2.01 1 0.29 3.69 -2.48 3.78 3.18 1.41 -0.59 0.6 1.89zm-4.88 -2.59l-0.8 0 -0.51 0.59 0.7 0.59 0.61 -1.19zm-25.92 23.91c-0.14,-2.06 -0.32,-3.78 -0.6,-5.17l-1.5 0.19 2.09 4.98zm5.19 -3.98l-0.8 -0.9 -1.89 1.29 -0.1 0 -0.9 -1.5 -0.59 0.41 2.59 3.88 -0.49 -2.09 1.89 -0.39 0.31 -0.7zm20.92 10.46l-0.8 -1.99 -1.29 1.6 0.49 1.5 1.21 0 0.39 -1.11zm-6.87 3.1l-0.31 -1.7 -1.99 1.8 2.3 -0.1zm8.77 0.49l-1.5 -1.89c-0.14,0.39 -0.24,0.66 -0.31,0.8 -0.07,0.14 -0.14,0.29 -0.2,0.49l0.61 0.6 1.39 0zm-26.51 3.49l-0.3 -0.8 -0.29 0 -1 0.8 0.1 1.99 1.5 -1.99zm32.28 -34.68l0 0.2 -2.09 1.79 1.39 -3.18 0.7 1.19zm-42.64 5.39l-0.21 0.29 -1.19 -0.39 0.08 -0.1 0.31 -1.9 1 2.11zm-3.1 29.29l-1.7 2.4 -0.49 -2.4 1.29 -0.8 0.9 0.8zm-1.39 4.59l-1.5 -0.41 0.2 -1.99 1.29 2.4zm91.99 -39.47l-1.6 5.39 -3.1 2.59 -10.46 -2.19 -1.79 -0.99 -1.5 0.88 -6.99 1.11 -2.09 2.19 -1.09 -0.3 0.21 4.69 1.29 1.99 0.9 -2.89 0.6 1.39 1.99 0.49 1.7 -0.7 5.17 1.91 0 0.68 0.8 2.01 3.28 -0.9 1 1.19 4.39 1.99 2.58 3.1 2.09 0.2 0 1.19 1.8 4.59 -1.29 1.29 0.49 1.19 -2.09 2.69 -1 -0.8 -3.28 2.01 -1.6 2.09 -1.09 -1 -6.48 2.79 0 1.21 -2.09 -1.41 -2.09 3.1 -0.41 -2.48 -0.8 -0.31 -1.79 0.7 -1.1 2.09 -2.48 -1.09 -1.6 1.5 -2.09 -2.09 -0.49 -0.1 -2.19 1.79 -3.18 -3.38 -3.1 3.1 -1.19 -7.09 0.19 -1.99 2.09 0.1 1.1 -0.99 -0.41 -1.31 5.99 1.9c0.46,-0.14 1.16,-0.56 2.09,-1.29l2.48 1.39 0 -0.1 -0.29 1.19c1.92,-0.8 3.06,-1.12 3.39,-1l4.67 1.21 1.39 -0.41 -0.08 -0.8 1.58 -2.38 1.31 0.9 0.39 -1.39 2.09 -0.31 -2.59 -1.7 -2.6 -4.37 0 1.89 -1.19 0.39 -4.39 -3.38 -0.59 0.49 -4.98 -1.48 -0.29 0.88 -5.88 -5.87 -1.29 -6.38 -1 4.47 -3.18 -8.47 2.89 4.18 2.18 -9.17 0.41 1.6 2.09 -3.69 3.39 -0.99 3.38 0.29 3.4 -1.39 1.29 1.6 -0.51 0.39 0.8 0.9 4.88 -4.59 3.3 1.6 2.79 -1.6 0.99 2.01 1 0.29 3.69 -2.48 3.78 3.18 1.41 -0.59 0.6 1.89zm-4.88 -2.59l-0.8 0 -0.51 0.59 0.7 0.59 0.61 -1.19zm-25.92 23.91c-0.14,-2.06 -0.32,-3.78 -0.6,-5.17l-1.5 0.19 2.09 4.98zm5.19 -3.98l-0.8 -0.9 -1.89 1.29 -0.1 0 -0.9 -1.5 -0.59 0.41 2.59 3.88 -0.49 -2.09 1.89 -0.39 0.31 -0.7zm20.92 10.46l-0.8 -1.99 -1.29 1.6 0.49 1.5 1.21 0 0.39 -1.11zm-6.87 3.1l-0.31 -1.7 -1.99 1.8 2.3 -0.1zm8.77 0.49l-1.5 -1.89c-0.14,0.39 -0.24,0.66 -0.31,0.8 -0.07,0.14 -0.14,0.29 -0.2,0.49l0.61 0.6 1.39 0zm-26.51 3.49l-0.3 -0.8 -0.29 0 -1 0.8 0.1 1.99 1.5 -1.99zm32.28 -34.68l0 0.2 -2.09 1.79 1.39 -3.18 0.7 1.19zm-42.64 5.39l-0.21 0.29 -1.19 -0.39 0.08 -0.1 0.31 -1.9 1 2.11zm-3.1 29.29l-1.7 2.4 -0.49 -2.4 1.29 -0.8 0.9 0.8zm-1.39 4.59l-1.5 -0.41 0.2 -1.99 1.29 2.4zm59.5 -52.13l-0.51 1.6 0.41 1.79 -0.9 0 -2.99 -1.39 2.19 -0.39 -8.47 -10.76 5.47 -0.8 2.09 1.9 -1.99 0.19 3.69 1.39 -0.41 1.5 1.41 4.98zm5.97 52.82l-1.19 1.99 0 1.09 -3.59 -1.39 -5.78 1.8 0.9 -2.3 -1.29 0.8 -1.31 -3.2 0.3 -0.78 -2.3 -2.19 2.3 -1.1 -0.2 -0.7 -2.09 -2.59 1.19 -3.79 -1.39 1.7 0.41 -2.69 -1.29 -4.2 0.19 -1.19 -0.29 -2.89 1.19 -1.89 0 -0.9 -0.7 -0.29 -1.19 0.7 1.19 -5.88 -0.39 -1.99 1.5 -3.79 0.99 1.39 1.6 -1.89 -2.79 -0.8 1.5 -2.59 -0.51 -0.31 -1.58 1 3.38 -4 1.79 1.11 6.99 7.07 -0.8 7.67 0.1 1.09c0,0.27 0.29,1.33 0.88,3.2l-1.58 1.39 0.19 3.1 1.6 6.17 -0.7 1.09 -1.5 0.31 3.1 5.78 1.19 4.88zm-11.96 -30.99l-1.1 -2.01 -0.99 1 1.19 1.89 -1.19 1.5 0.8 0.31 1.29 -2.69zm8.86 8.47l-0.09 -1.31 -0.8 -0.6 -1.5 0.31 2.38 1.6zm-2.19 1.68l0 -2.3 -0.88 1.1 0.59 1.19 0.29 0zm50.53 16.34l-0.6 1.29 -5.08 2.89c-1.46,-1.12 -2.89,-1.68 -4.29,-1.68 -0.73,0 -1.09,-0.65 -1.09,-1.9l0.08 -2.89c0,-2.19 -1.16,-5.17 -3.49,-8.96 -2.31,-3.79 -3.78,-7.11 -4.37,-9.97l-1.6 2.89 -1.29 -3.28 1.39 -1.31 -0.8 -1.29 -3.49 2.79c0.07,0.48 -0.27,1.07 -1,1.8l1.6 0.7c-0.14,0.26 -0.46,0.46 -1,0.6 -0.53,0.07 -0.83,0.17 -0.88,0.31l0.78 1.09 0.61 4.78 -1.21 7.38 3.69 6.38 -2.48 5.19 -4.39 -0.8 -1.6 -1.7 -1.79 0.6 -1 -3.39 0.1 -0.9 1.39 -0.39 -0.49 -1.39 -2.19 2.99 -2.01 -3.5 -1.48 -0.78c0.05,-1.34 0.15,-2.36 0.29,-3.1l1 -4.78c-0.27,-0.07 -0.51,-0.31 -0.7,-0.7 -0.2,-0.41 -0.41,-0.6 -0.59,-0.6 -0.14,0 -0.37,0.12 -0.7,0.39 -0.27,0.27 -0.58,0.39 -0.9,0.39l-0.1 -0.88 3.49 -4.69 -1.19 -1.89 0.7 -2.19 1.39 3.79 0.19 0 0.51 -1.21 -1.29 -3.67 -1.11 0.08 -0.99 -0.99 1.48 -1.6 -2.28 -6.97 -1.21 -0.59 0.9 -1.9c-0.14,-1.51 0.17,-2.31 0.9,-2.38l2.89 1.89 1.19 -0.29 1.99 2.28 2.3 -0.39 2.89 2.48 2.4 -1.68 -1.8 -0.41 1.8 -1.29 1.89 2.4 1.89 -1.6 0.59 0.21 1 1.6 2.79 -0.9 2.4 3.59 1.29 -1.29 0.39 0.08 2.01 6.89 0 -2.99c1.39,1.72 2.58,4.88 3.57,9.47 0.27,1.46 1.39,3.28 3.4,5.47l1.19 -0.8 0.59 0.3 -0.1 0.99 0.8 4.18 -1.39 0 1.39 2.6 -2.3 0 2.5 1.48 -1.99 2.4c0.73,-0.6 1.33,-0.9 1.79,-0.9l0.8 0.21zm-36.28 -30.19l-1.68 -2.79 -1 0.88 0.9 0.2 0 1.29 1.79 0.41zm10.87 0.39l-1.19 1.6 -0.51 -0.9 -1.5 -0.29 1.4 1.79c0.2,0.27 0.37,0.83 0.51,1.7l0.1 0 1.19 -3.89zm1.5 6.97l-0.6 -1.19 -1.39 0.49 0.88 1.5 1.11 -0.8zm-1.29 10.66c0.12,-0.46 -0.31,-1.53 -1.31,-3.18l0 1.79 1 2.89 0.31 -1.5zm-10.56 -1.79l-0.71 -0.51 -0.19 0.1 -0.1 1.29 0.6 1.21 0.41 -2.09zm9.95 5.17l-0.29 -1.09 -1.89 -1.79c0.66,1.33 1.33,2.98 1.99,4.97l0.19 -2.09zm14.76 -1.48l-1 -1.21 0.31 2.79 0.7 -1.58zm-23.03 3.78l-0.2 0 -0.8 0.51 -0.59 2.09 1.6 -2.6zm-3.59 -18.54l-1.5 2.5c-0.19,-1.19 -0.39,-1.99 -0.6,-2.4l0.7 -1.5c0.6,0 1.07,0.48 1.39,1.39zm0.6 8.57l-1.89 0.41 0.31 -1.39c0.26,0.32 0.53,0.56 0.78,0.7 0.27,0.07 0.55,0.15 0.8,0.29zm66.77 -44.13l-1.39 -0.1 0.49 -2.99 0.9 3.1zm2.48 2.38l-2.38 -1.19 1.19 -1 1.19 2.19zm-5.17 -1.6l0 0.21 -0.51 1.29 -0.59 -0.7 1.1 -0.8zm15.83 59.2l-1.19 5.88 -2.59 -2.79 -2.6 3.18 -1.79 -1.7 -0.49 0.1 -1.9 1.9 -1.68 -1.39 -3.2 0.99 -1.29 -1.79 -0.49 2.69 -1.6 -3.1 -0.39 2.3 -1.8 -2.79 -1.79 1.19 -0.8 -0.99 -5.88 -2.5 -1.6 1 -1.29 -5.78 -2.89 -3.79 -0.9 0.7 -1.29 -2.58 0.1 -0.9 -1.19 -3.28 1.5 -4.88 0.59 1.79c0.8,-0.26 1.19,-1.02 1.19,-2.3l3.49 -2.28 2.4 -2.09 1.6 -0.59 3.59 0.78 1.09 -2.48 4.39 -1.5 1.5 0.6 1.58 -0.29 0 -7.59 -1.09 -18.23 1.99 3.9 1 -0.7 -1 -4.9 0.7 -4.78 2.69 2.3 -0.49 0.9 1.5 2.19 1.19 -3.5 1.7 2.89 0.1 -2.38 5.27 4.19 -0.29 3.49 0.8 2.3 -0.2 1.5c0,0.19 0.53,0.99 1.6,2.38l-4.8 10.48c0.27,0.26 0.87,0.63 1.8,1.09l-0.3 -1.29 1.9 -3.3 -0.41 -0.88 1.11 -1.21 -1.11 7.08 -0.9 1.11c0.2,0.53 0.27,0.99 0.2,1.39l-0.8 0 -0.88 9.27 0.59 3.88 -0.31 1.7 0.8 5.68 1.19 2.89 -0.8 2.3 0.8 0.88 1.5 -0.19 0.41 0 0.19 1.89zm-4.29 -50.92l-0.08 -0.8 0 -0.1 -0.61 -0.31 0 1.7 0.2 0 0.49 -0.49zm-9.35 3.98l-0.9 1.39 0.49 1 0.41 -2.4zm11.55 3.49l-1.99 -2.48 -0.29 2.38 0.19 0 1.7 1 0.39 -0.9zm-3.78 2.09l-0.2 -0.99c-1.07,1.33 -1.63,2.24 -1.7,2.79l0.41 0.9 1.5 -2.7zm-2.6 1.6l-1.89 0.2 1 1.68 0.88 -1.89zm-2.38 7.87l-0.8 -0.39 -0.21 0 0 1.48 1 -1.09zm6.67 4.39l-0.39 -1.29c-0.14,-0.41 -0.49,-0.97 -1.1,-1.7l0 0.8 1.5 2.19zm-8.37 2.79l-0.49 -0.31 -0.7 1.6 -0.1 0c-1.19,-0.87 -2.09,-1.63 -2.69,-2.3l0.39 2.3 1.1 0.59 0.08 1.5 2.4 -3.38zm-19.03 6.38c-0.14,-0.2 -0.21,-0.41 -0.21,-0.59 0,-0.2 -0.03,-0.48 -0.1,-0.8l-0.8 1.5 -0.99 0.29 1.29 1.6 0.8 -1.99zm17.53 17.14l-0.7 -11.46 0.59 -1.99 -0.8 -0.8 0.21 -0.9 -2.19 -2.69 -3.28 2.79 -1.1 -0.41 0 -1.48 -3.18 4.88 -1.99 -1.9 -0.49 1.5 2.98 6.28 0.9 -0.8 1.09 2.81 6.89 3.49 -0.51 1.39 1.6 -0.7zm-19.83 -13.06l-0.7 -2.48 -0.7 1.89 0.31 0.9 1.09 0 0 -0.31zm28.4 7.38l-0.59 -6.89 -1 2.5 1.39 5.68 0.2 -1.29zm-21.82 -3.4l0 -1.19 -0.31 1.5 0.31 -0.31zm-7.98 0.2l-0.29 -1.09 -1.5 -0.1 0.88 1.79 0.9 -0.59zm24.91 5.19l-0.8 -0.8 -0.29 0.1 -0.31 0.7 1.19 1.6 0.2 -1.6zm-5.68 -51.43l-0.7 2.6 -0.49 -2.3 1.19 -0.31zm19.93 55.41l-0.59 1.99 -1.29 -1.89 0.7 -0.8 1.19 0.7zm0 3.1l-0.8 0.7 -2.89 1.19 1.39 -3.39 2.3 1.5zm41.05 -9.68l-1.5 2.5 -1.39 -0.9 -3.49 4.49 -1.29 -0.59 -2.01 3.08 -5.68 4.39 -0.39 -1.79 -0.8 -0.8 -0.31 0 -0.29 0.9 0.9 3.08 0 0.2 -1.5 -0.49 -4.88 2.28 -3.1 -1.79 1.29 -1.7 -1.89 0.9 -3.59 0.39 -1.19 -0.88 -3.49 -6.68 -0.71 0.2 -2.87 -3.49 0 -0.9 1.48 1.29 -0.19 -2.3 0.99 -2.28 -1.29 -1.5 -1.19 1.39 0 -1.5 -1 0.1 1.4 -6.48 -1.19 -2.99 1.19 -6.38 -1.09 -0.7 2.48 -1.68 1.29 -2.6 -0.7 -1.29 0 -0.8 1.6 0.41 2.4 -2.6 0.39 0.8 -0.39 1.9 1.09 0.78c0.48,-2.06 1,-3.64 1.6,-4.78l1.89 2.5 1.8 -3.89 0.9 0.9 2.38 -1.6 1 0.7 1.5 -1.09 0.99 1.58 1.21 -1.09 6.77 1.89 3.2 1.39 3.57 2.7 0.9 -0.61 2.69 4.59 -0.09 3.08 -0.7 1.41 -0.8 -0.61 -2.3 3.49 -0.7 -0.19 -3.3 3.98c-0.39,0.07 -1.09,-0.29 -2.09,-1.09l-0.39 0.8 0.39 1.19 -0.88 1.09 -1.39 -0.19 -0.8 1.29 -1.8 -1.29 -9.17 5.07 0 0.2 0.2 -2.48 -1 1.09 -1.19 -1 2.3 5.6 -0.8 2.28 3.98 0.2 0.1 2.89 1 -1.99 0.8 0.2 3.28 -1.6 0.8 0.2 10.25 -10.66 1.21 0.7 -1.39 0.7 -1 1.48c1.46,-0.59 2.23,-1.02 2.3,-1.29l0.8 2.7 0.29 -1.8 1.1 -0.39 0.29 0.99 -0.6 2.99 1.7 1.29 0.1 0.49zm-10.97 -17.33c-2.26,-1.8 -3.94,-3.35 -5.08,-4.68 -0.46,-0.55 -1.26,-0.9 -2.38,-1.1l-3.3 2.69 -0.29 -0.99 -1.11 0.8 -1.19 -0.2 1.6 -2.09 -6.19 4.57 1.21 2.7 -0.31 4.27 0.1 0.9 11.46 -3.18 1.6 -4.1 1.89 1.7 0.1 -1.29 1.89 0zm-10.66 -2.19l-1.99 0.39 -0.2 0.9 -1.5 -1.79 1.7 0 1.99 0.49zm19.13 -2.09l-0.39 0 -0.9 1.39 1.19 0.6 0.1 -1.99zm-32.58 9.58l-2.3 -2.81 -0.19 0 0.39 1.6c0.07,0.48 0.41,1.26 1,2.4l1.09 -1.19zm2.5 0.08l-0.51 -0.6 -0.8 0.41c-0.19,0.12 -0.68,0.73 -1.48,1.79l2.79 -1.6zm17.14 2.89l-1.6 0.3 -0.1 0 -0.2 -1 -1.89 2.3 2.38 -0.39 1.41 -1.21zm-11.07 6.58l-1.79 -3.28 -1.21 1.5 0.8 0.99 2.19 0.8zm0.1 1.6l-0.1 -0.31 -0.49 -0.2 -1 0.9 0.59 0.8 1 -1.19zm-3.79 11.46l0 -0.9 -1.5 0 1 2.59 0.49 -1.68zm-7.77 -33.79l-0.39 1.5 0.39 1.29 -1.68 -0.7 1.29 -2.89 0.39 0.8zm86.6 25.41c-0.87,1.73 -1.43,2.67 -1.7,2.79l-1.79 -1.89 0.29 1.8 -3.98 2.59 -1.6 -0.9 -6.67 1.39 -4.8 4 -1.39 -0.61 -3.69 2.19 -1.39 -0.88 -1.29 1.48 -4.18 -2.59 -1.29 0.7 -3.18 -2.09 -1.31 0.59 -3.78 -4.68 -0.9 -9.06 -1.39 -3.59 0.31 -1.39 0.78 0 0.7 1.99 1.31 -1 -1.91 -2.48 0.8 -3.3 0.7 0.1 1.19 -3.49 1.21 -2.48 5.17 -4.49 4.39 -2.89 -0.39 -1.09 1.68 -2.4 6.09 -1.19 1.89 0.49 1.8 -0.7 1.58 2.79 1.7 -2.79 1.8 1 2.48 -0.41 3.79 4 0.49 1.39 -1.19 0.49 2.28 0.8 -1.68 5.97 1.68 2.6 -5.76 -5.08 1.89 -0.1 -1.29 -1.29 -4.1 -2.09 -4.57 -0.1 -0.1 -1 -3.79 2.79 -5.87 3.69 -0.7 4.59c-1.6,3.91 -2.4,7.26 -2.4,10.07 0,2.45 1.96,5.51 5.88,9.17l2.19 -0.41 6.97 -5.58 3.98 -1.99 1.29 0.39 6.89 -3.77 3.67 2.79 -0.7 4.88 1.21 -3.79 0.7 4.08zm-38.67 -5.87l-0.6 -2.89 -0.99 3.49 0.08 0.8 1.5 -1.39zm31.39 5.27c-0.6,0.48 -1.12,1.74 -1.6,3.79l1.39 0.99 0.2 -4.78zm-4.18 2.6l0 -0.61 -1.19 0.7 -1.9 2.7 2.6 -0.51 0.49 -2.28zm8.08 -22.92c-0.27,0.73 -0.48,1.5 -0.61,2.3l-1.29 -0.7 -0.1 -1.21 1 -0.88 1 0.49zm53.71 8.67l-1.1 3.59 -1.89 -1.8 -0.21 0 -0.59 0.9 0.41 1.5 -0.9 0.88 2.3 1 -1.21 1.39 0.8 2.59c-0.92,1.73 -1.53,3.16 -1.79,4.29l-1.11 -2.28 -1.68 2.28 -0.7 3.1 -2.3 -1.7 -0.9 0.8 1.7 2.19 -0.9 2.89 -1 -2.19 -2.79 3.3 -1.09 -1.31 -1.39 4.1 -1.29 -0.8 -2.79 1.29 -2.3 -2.09 -0.8 1.29 -3.18 -1.5 -1.8 0.8 -5.68 -1.5 -4.88 -3.59 -0.31 0 -1.89 -1.99 0.1 -0.7 -2.69 -2.89 -2.09 -10.07 0.88 -2.19 -0.99 -2.09 1.39 -0.59 -0.41 -1.89 1.7 -2.99 1.79 2.09 2.01 -6.38 2.79 -1.29 -0.2 -1.19 1.5 -1.5 0.9 1.19 0.39 -1.19 1.1 0.29 2.48 -1.89 -0.3 -0.59 1.1 -1.29 -0.31 -0.8 1.39 -1.9 0.41 1.6 -0.8 1.11 0.8 0.49c-0.14,-0.07 0,-0.37 0.39,-0.95 0.41,-0.56 1.29,-1.56 2.69,-3.03l1 1.68 0.7 -0.19 0 1.09c0.46,0.73 0.83,1.09 1.09,1.09l0.1 -3.18 1 0.29 2.48 4.59 0.41 -1.29 -0.9 -2.89 1.6 -3.1 2.3 1.6 0.99 -1.19 0 2.89 1.9 1.19 0 -0.2 -1.11 -1.99 0.7 -2.19 1.99 1.19 -0.6 1 0.31 1 1.09 -1.4 0.49 1.09 3.69 3.38 -0.59 1.6c0.59,0 1.06,-0.07 1.34,-0.2 0.31,-0.12 0.65,-0.29 1.06,-0.49l-0.31 3.28 0.31 1.21 -0.6 1.5 0.09 1.89 3.2 -0.2 -0.8 1.29 0.49 4.49 -1.58 -0.31 -2.09 0.8 3.68 2.4 0 -1 1.7 0 0.1 0.51zm-16.55 -20.94l-1.79 0.2 0 1 1.79 -1.21zm8.98 3.79l-1.1 0 0.31 0.9 0.8 -0.9zm-1.7 11.46l-2.3 -0.59 0.6 -0.9 -2.59 -7.18 -0.6 -0.2 -1.9 1.1 -2.09 -1.1 -1.39 2.79 -0.88 -2.59 -0.51 -0.1 -1.68 1.19 0.49 0.21 -1.29 1.29 1.7 1.1 0.29 0.6 -1.09 0.7 -1.39 -0.8 -3.79 2.99 -4.98 6.87 -1 6.28 -0.78 -0.99 -0.31 2.59 0.7 5.08 1.39 -0.59 1 1.68 -0.61 0.6 0.41 2.3 1.68 -1.39 1.31 3.49 0.88 -2.38 1.11 1.89 2.59 -0.9 2.09 1.39 5.08 -3.49 0.39 1.9 0.41 -1.8c0.14,-0.73 0.29,-1.29 0.49,-1.7l0.9 -1.68 1.6 -0.59 0 -1.11 2.09 -14.05 1.99 -1.89zm5.47 0.49l-0.39 -0.8 -1.8 0.31 1.21 0.88 0.99 -0.39zm-35.37 5.08l-1.6 -1.8 0.51 2.3 -0.21 1.11 1.19 2.18 0.1 -3.78zm-2.99 2.79l-0.7 -0.9 -0.39 0.6 0.49 0.9 0.6 -0.6zm36.27 0.39l-2.19 0.59 0 0.31 1.39 0.2 0.8 -1.1zm-1.19 5.68l-0.7 -0.59 -0.1 0.7 0.3 0.9 0.49 -1zm-3.2 0.1l0 -0.39 -0.6 0 -1.19 1.19 1.79 -0.8zm5.58 0.7l-0.78 -0.39 -1.1 1.6 1.89 -1.21zm-26.99 8.08l-1.21 -0.1 -1.09 1.19 0.59 1.1 1.7 -2.19zm-0.2 -34.29l-1.19 1.9 -0.71 -0.41 0 -0.3 0.41 -1.39 -0.8 -0.7 0.39 -0.49 1.9 1.39zm31.58 4.69l-3.28 2.69 -0.31 -0.59 1.5 -1.8 2.09 -0.29zm-40.25 2.87l-1 1.5 -0.78 -1.39 0.7 -2.38 1.09 2.28zm62.38 30.31l-1.68 2.19 0.09 -1.8 -1.58 1.8 0.39 -1.21 -0.99 -1.68 -0.51 2.09 -1.09 -1.7 0 -1.89 -0.8 0.9c-0.2,0.32 -0.49,1.16 -0.9,2.48l-1.68 -4.39 -1.6 1.29 -0.41 1.9 -0.7 0.1 -4.29 -4.29 2.4 -1.39 -0.6 -0.9 -0.59 0.1 -1.99 -1.6 2.87 -0.39 -0.78 -2.6 -1.31 -1.19 -0.49 -1.7 1.19 -2.3 5.68 6.99 0.9 -1.11 -2.3 -1.5 0.31 -2.48 -1.5 0.6 -0.49 -4.68 1.68 -1.21 -2.59 -6.28 2.19 -3.18 -0.39 -0.41 -2.4 0.9 -0.9 -2.09 1.6 0.9 2.89 -4.39 0.29 -1.29 -2.09 -2.79 2.09 -2.01 -1.29 -0.99 -1.39 0.39 0.49 -1.89 -0.49 -4.78 0.6 -2.3 -0.49 -1.39c1.33,-1 2.19,-1.53 2.59,-1.6l-1.68 -1.39 0.99 -4.49 1.7 -0.7 -2.59 -3.28 1.19 -0.49 2.69 0.6 0.59 -1.89 1 -0.31 3.28 1.99 0.31 24.81 -0.41 1.7 1.21 6.77 -0.7 21.33 0.8 -0.29 1.68 8.37zm-8.47 -45.75l-0.59 -0.49c-0.14,-0.14 -1,-0.43 -2.59,-0.9l2.59 2.69 0.59 -1.29zm0 11.36l-0.59 0 -2.19 2.79 2.59 -1.58 0.2 -1.21zm-2.3 11.56l-0.78 -0.8 0 0.9 0.78 0 0 -0.1zm3.59 2.89l-0.7 -1.6 0 1.6 0.7 0zm-1.29 1.6l0 -1.21 -0.9 0 -0.09 0.59 0.78 0.61 0.2 0zm1.29 10.36l-0.99 -0.7 0 0.7 0.99 0zm2.09 1.79l-1.09 0 0 2.01 1.09 -2.01zm-5.07 -53.2l-2.99 1.58 0 -2.09 1.89 -0.9 1.1 1.41zm-2.11 22.8l-1.68 -1.89 0 -0.49 1 -0.21 0.68 2.59zm0.31 4l-1.5 1.99 -1.6 -3.49 0 -1.11 3.1 2.6zm-0.99 14.95l-1.9 -0.1 -0.9 -2.19 0.31 -1.19 2.5 3.49zm-2.01 8.86l-2.79 0.1 0.7 -1 2.09 0.9zm1.6 10.66l-2.4 0.7 1.1 -1.5 -0.8 -0.6 1.79 -0.59 0.31 1.99zm1.89 0l-0.8 3.1 -0.49 -4.88 1.29 1.79zm56.61 -13.06l-1.5 2.5 -1.39 -0.9 -3.49 4.49 -1.29 -0.59 -2.01 3.08 -5.68 4.39 -0.39 -1.79 -0.8 -0.8 -0.31 0 -0.29 0.9 0.9 3.08 0 0.2 -1.5 -0.49 -4.88 2.28 -3.1 -1.79 1.29 -1.7 -1.89 0.9 -3.59 0.39 -1.19 -0.88 -3.49 -6.68 -0.71 0.2 -2.87 -3.49 0 -0.9 1.48 1.29 -0.19 -2.3 0.99 -2.28 -1.29 -1.5 -1.19 1.39 0 -1.5 -1 0.1 1.4 -6.48 -1.19 -2.99 1.19 -6.38 -1.09 -0.7 2.48 -1.68 1.29 -2.6 -0.7 -1.29 0 -0.8 1.6 0.41 2.4 -2.6 0.39 0.8 -0.39 1.9 1.09 0.78c0.48,-2.06 1,-3.64 1.6,-4.78l1.89 2.5 1.8 -3.89 0.9 0.9 2.38 -1.6 1 0.7 1.5 -1.09 0.99 1.58 1.21 -1.09 6.77 1.89 3.2 1.39 3.57 2.7 0.9 -0.61 2.69 4.59 -0.09 3.08 -0.7 1.41 -0.8 -0.61 -2.3 3.49 -0.7 -0.19 -3.3 3.98c-0.39,0.07 -1.09,-0.29 -2.09,-1.09l-0.39 0.8 0.39 1.19 -0.88 1.09 -1.39 -0.19 -0.8 1.29 -1.8 -1.29 -9.17 5.07 0 0.2 0.2 -2.48 -1 1.09 -1.19 -1 2.3 5.6 -0.8 2.28 3.98 0.2 0.1 2.89 1 -1.99 0.8 0.2 3.28 -1.6 0.8 0.2 10.25 -10.66 1.21 0.7 -1.39 0.7 -1 1.48c1.46,-0.59 2.23,-1.02 2.3,-1.29l0.8 2.7 0.29 -1.8 1.1 -0.39 0.29 0.99 -0.6 2.99 1.7 1.29 0.1 0.49zm-10.97 -17.33c-2.26,-1.8 -3.94,-3.35 -5.08,-4.68 -0.46,-0.55 -1.26,-0.9 -2.38,-1.1l-3.3 2.69 -0.29 -0.99 -1.11 0.8 -1.19 -0.2 1.6 -2.09 -6.19 4.57 1.21 2.7 -0.31 4.27 0.1 0.9 11.46 -3.18 1.6 -4.1 1.89 1.7 0.1 -1.29 1.89 0zm-10.66 -2.19l-1.99 0.39 -0.2 0.9 -1.5 -1.79 1.7 0 1.99 0.49zm19.13 -2.09l-0.39 0 -0.9 1.39 1.19 0.6 0.1 -1.99zm-32.58 9.58l-2.3 -2.81 -0.19 0 0.39 1.6c0.07,0.48 0.41,1.26 1,2.4l1.09 -1.19zm2.5 0.08l-0.51 -0.6 -0.8 0.41c-0.19,0.12 -0.68,0.73 -1.48,1.79l2.79 -1.6zm17.14 2.89l-1.6 0.3 -0.1 0 -0.2 -1 -1.89 2.3 2.38 -0.39 1.41 -1.21zm-11.07 6.58l-1.79 -3.28 -1.21 1.5 0.8 0.99 2.19 0.8zm0.1 1.6l-0.1 -0.31 -0.49 -0.2 -1 0.9 0.59 0.8 1 -1.19zm-3.79 11.46l0 -0.9 -1.5 0 1 2.59 0.49 -1.68zm-7.77 -33.79l-0.39 1.5 0.39 1.29 -1.68 -0.7 1.29 -2.89 0.39 0.8zm49.56 37.72l-0.27 0.48 -0.48 -0.59 -0.7 0.11 -1.08 -0.64 1.83 -0.48 -1.07 0.06 -2.41 -0.37 -0.65 0.37 -1.54 -2.2 -1.02 -0.21 0.75 -0.43 0.54 0.27 0.86 -0.33 -0.65 -0.05 -0.32 -0.48 -0.9 -0.11 0 -0.8 0.9 -2.51 0.16 0.8 1.22 -1.34 0.7 0.86 0.26 -0.11 0.7 1.61 1.87 1.76 1.29 4.34zm-5.67 -5.35l0 -0.64 -0.37 0.64 0.37 0zm1.82 3.16l-0.69 -0.11 -0.22 0 0 0.54 0.91 -0.43zm-2.84 -4.17l-0.9 0.48 0.11 -0.7 0.47 -0.43 0.32 0.65zm5.83 -0.06c-0.46,0.64 -0.77,1.01 -0.9,1.12l-0.43 -0.37 -0.16 -0.75 0.59 -0.16 0.9 0.16zm28.04 0.16c-0.46,0.93 -0.77,1.43 -0.91,1.5l-0.96 -1.01 0.16 0.97 -2.14 1.39 -0.86 -0.48 -3.58 0.75 -2.57 2.15 -0.75 -0.33 -1.98 1.18 -0.75 -0.48 -0.69 0.79 -2.25 -1.39 -0.7 0.37 -1.71 -1.12 -0.7 0.32 -2.03 -2.51 -0.48 -4.87 -0.75 -1.93 0.16 -0.75 0.42 0 0.37 1.07 0.7 -0.54 -1.02 -1.33 0.43 -1.77 0.37 0.05 0.64 -1.87 0.65 -1.33 2.77 -2.41 2.36 -1.55 -0.21 -0.59 0.9 -1.29 3.27 -0.64 1.01 0.27 0.97 -0.37 0.85 1.5 0.91 -1.5 0.97 0.54 1.33 -0.22 2.04 2.15 0.27 0.75 -0.64 0.27 1.22 0.43 -0.9 3.2 0.9 1.4 -3.1 -2.73 1.01 -0.06 -0.7 -0.69 -2.2 -1.12 -2.46 -0.06 -0.05 -0.54 -2.04 1.5 -3.15 1.98 -0.37 2.47c-0.86,2.1 -1.29,3.9 -1.29,5.41 0,1.31 1.05,2.96 3.16,4.92l1.18 -0.22 3.74 -2.99 2.14 -1.07 0.69 0.21 3.7 -2.03 1.97 1.5 -0.37 2.62 0.65 -2.04 0.37 2.19zm-20.76 -3.15l-0.32 -1.55 -0.53 1.87 0.05 0.43 0.8 -0.75zm16.85 2.83c-0.32,0.26 -0.6,0.93 -0.86,2.04l0.75 0.53 0.11 -2.57zm-2.25 1.4l0 -0.33 -0.64 0.37 -1.02 1.45 1.4 -0.28 0.27 -1.22zm4.34 -12.31c-0.15,0.39 -0.26,0.8 -0.33,1.23l-0.69 -0.37 -0.06 -0.65 0.54 -0.48 0.54 0.27zm28.83 4.66l-0.59 1.93 -1.01 -0.97 -0.11 0 -0.32 0.48 0.22 0.8 -0.49 0.47 1.23 0.54 -0.65 0.75 0.43 1.39c-0.49,0.93 -0.82,1.7 -0.96,2.3l-0.59 -1.22 -0.9 1.22 -0.37 1.66 -1.23 -0.91 -0.49 0.43 0.91 1.18 -0.48 1.55 -0.54 -1.18 -1.5 1.77 -0.58 -0.7 -0.75 2.2 -0.69 -0.43 -1.5 0.69 -1.23 -1.12 -0.43 0.69 -1.71 -0.8 -0.97 0.43 -3.05 -0.8 -2.62 -1.93 -0.16 0 -1.01 -1.07 0.05 -0.37 -1.44 -1.55 -1.12 -5.41 0.48 -1.18 -0.53 -1.12 0.75 -0.32 -0.22 -1.01 0.91 -1.61 0.96 1.12 1.08 -3.42 1.5 -0.69 -0.11 -0.64 0.8 -0.8 0.48 0.64 0.21 -0.64 0.59 0.16 1.33 -1.01 -0.16 -0.32 0.59 -0.7 -0.16 -0.43 0.75 -1.02 0.22 0.86 -0.43 0.59 0.43 0.27c-0.07,-0.04 0,-0.2 0.21,-0.51 0.22,-0.3 0.7,-0.84 1.44,-1.63l0.54 0.9 0.37 -0.1 0 0.58c0.25,0.39 0.45,0.58 0.58,0.58l0.05 -1.71 0.54 0.16 1.33 2.46 0.22 -0.69 -0.48 -1.55 0.86 -1.66 1.23 0.86 0.53 -0.64 0 1.55 1.02 0.64 0 -0.11 -0.59 -1.07 0.37 -1.18 1.07 0.64 -0.32 0.54 0.16 0.54 0.58 -0.75 0.27 0.59 1.98 1.82 -0.32 0.86c0.32,0 0.57,-0.04 0.72,-0.11 0.16,-0.06 0.35,-0.16 0.57,-0.27l-0.16 1.76 0.16 0.65 -0.32 0.8 0.05 1.01 1.72 -0.11 -0.43 0.7 0.27 2.41 -0.85 -0.16 -1.12 0.43 1.97 1.29 0 -0.54 0.91 0 0.06 0.28zm-8.88 -11.24l-0.96 0.11 0 0.54 0.96 -0.65zm4.82 2.04l-0.59 0 0.16 0.48 0.43 -0.48zm-0.91 6.15l-1.23 -0.32 0.32 -0.48 -1.39 -3.85 -0.32 -0.11 -1.02 0.59 -1.12 -0.59 -0.75 1.5 -0.48 -1.39 -0.28 -0.06 -0.9 0.64 0.27 0.11 -0.7 0.7 0.91 0.59 0.16 0.32 -0.58 0.37 -0.75 -0.43 -2.04 1.61 -2.68 3.69 -0.54 3.37 -0.42 -0.53 -0.16 1.39 0.37 2.73 0.75 -0.32 0.54 0.9 -0.33 0.32 0.22 1.23 0.9 -0.75 0.7 1.87 0.48 -1.28 0.59 1.01 1.39 -0.48 1.12 0.75 2.73 -1.87 0.21 1.02 0.22 -0.97c0.07,-0.39 0.16,-0.7 0.27,-0.91l0.48 -0.9 0.86 -0.32 0 -0.59 1.12 -7.54 1.07 -1.01zm2.94 0.27l-0.21 -0.43 -0.97 0.16 0.65 0.48 0.53 -0.21zm-18.99 2.73l-0.86 -0.97 0.28 1.23 -0.11 0.59 0.64 1.17 0.06 -2.03zm-1.61 1.5l-0.37 -0.48 -0.21 0.32 0.27 0.48 0.32 -0.32zm19.47 0.21l-1.18 0.32 0 0.16 0.75 0.11 0.43 -0.59zm-0.64 3.05l-0.37 -0.32 -0.05 0.37 0.16 0.49 0.26 -0.54zm-1.72 0.05l0 -0.21 -0.32 0 -0.64 0.64 0.96 -0.43zm2.99 0.37l-0.42 -0.21 -0.59 0.86 1.01 -0.65zm-14.49 4.34l-0.65 -0.06 -0.58 0.64 0.32 0.59 0.91 -1.18zm-0.11 -18.41l-0.64 1.02 -0.38 -0.22 0 -0.16 0.22 -0.75 -0.43 -0.37 0.21 -0.26 1.02 0.75zm16.95 2.52l-1.76 1.44 -0.16 -0.32 0.8 -0.97 1.12 -0.15zm-21.61 1.54l-0.54 0.8 -0.42 -0.75 0.37 -1.28 0.58 1.22zm57.4 10.38l-0.58 3.96 -1.01 1.93 0.69 -0.59 0.53 0.06 -0.43 1.18c-0.14,0 -0.34,0.2 -0.58,0.59 -0.21,0.38 -0.5,0.58 -0.86,0.58 -0.71,0 -1.2,-0.15 -1.44,-0.43 -0.25,-0.32 -0.42,-0.53 -0.51,-0.61 -0.08,-0.09 -0.52,-0.25 -1.31,-0.46l-0.59 -1.5c0.22,-2.56 0.33,-4.37 0.33,-5.41 0,-1.89 -0.35,-3.41 -1.02,-4.55l-0.48 -0.21 0.16 -1.12 -0.21 -0.43 -1.12 1.44 -0.27 -1.87 1.07 -0.65 -0.27 -0.7 -2.25 1.55 -1.98 -0.64c-0.07,0.04 -0.12,0.06 -0.16,0.06 -0.11,0 -0.2,-0.18 -0.27,-0.54 -0.06,-0.36 -0.16,-0.48 -0.27,-0.37l0 1.61 -1.01 1.29c-0.18,1.35 -0.27,2.42 -0.27,3.2 0,1.5 0.24,3.53 0.7,6.1 0.53,0.5 0.8,0.95 0.8,1.34 0,0.28 -0.18,0.64 -0.54,1.07 -0.36,0.39 -0.71,0.84 -1.07,1.33l-0.75 -0.58c-0.36,-0.29 -0.77,-0.43 -1.23,-0.43l-0.91 0.15c-0.1,0 -0.32,-0.07 -0.64,-0.24 -0.32,-0.15 -0.57,-0.48 -0.75,-0.93l-0.21 -0.65 0.16 -0.75c0.04,-0.21 0.07,-0.8 0.11,-1.76l-0.69 -0.64c0.25,-0.5 0.37,-0.91 0.37,-1.23 0,-0.22 -0.13,-0.46 -0.37,-0.75 -0.26,-0.28 -0.39,-0.52 -0.43,-0.69 -0.04,-0.18 -0.06,-0.91 -0.06,-2.2 0,-1 -0.17,-1.6 -0.51,-1.82 -0.34,-0.21 -0.79,-0.32 -1.36,-0.32l0.7 -0.8c-0.28,-0.07 -0.49,-0.19 -0.58,-0.37 -0.11,-0.21 -0.2,-0.34 -0.28,-0.37l-1.07 1.55 -0.48 -1.76 0.8 -0.75 -0.32 -0.65 -2.08 1.82c0,0.26 -0.02,0.41 -0.06,0.48 -0.61,1.03 -0.91,1.91 -0.91,2.62l0.06 0.65 -0.43 1.6c-0.28,1.11 -0.43,2.2 -0.43,3.27 0,0.89 0.34,2.17 1.02,3.85l-1.29 2.35 0 -0.11c-0.11,-0.15 -0.18,-0.26 -0.22,-0.32 -0.03,-0.11 -0.08,-0.16 -0.15,-0.16l-0.27 0 -2.46 -0.75 -1.01 0.32 -0.22 -1.23c0.18,-0.28 0.37,-0.53 0.59,-0.75 0.21,-0.24 0.32,-0.51 0.32,-0.8l-0.22 -0.48 -1.39 1.61 -1.28 -2.95 0.96 -3.58 -0.7 0.06c-0.43,0 -0.64,-0.2 -0.64,-0.59l2.19 -2.78 -0.54 -0.96 0.54 -1.18 0.48 2.04 0.1 0 0.37 -0.97 -0.43 -0.43c-0.43,-0.92 -0.78,-1.5 -1.07,-1.71l0.91 -1.07c-0.28,-0.75 -0.43,-1.23 -0.43,-1.45l0.11 -0.58c0,-0.18 -0.13,-0.36 -0.37,-0.54l-0.43 0.91 -0.27 -1.5 0.33 -2.41c0.14,-0.06 0.28,-0.1 0.42,-0.1 0.26,0 0.91,0.17 1.98,0.53l0.75 -0.16 0.86 1.22 1.29 -0.21 0.43 2.25 1.17 -3.21 0.27 1.18 1.01 -0.69 0.8 1.29 1.23 -0.86c0.17,-0.04 0.37,0.66 0.58,2.09l1.66 -1.61 0.96 1.93c0.22,-0.18 0.37,-0.34 0.48,-0.48 0.15,-0.15 0.23,-0.21 0.27,-0.21 0.04,0 0.15,0.02 0.32,0.05l0.11 2.09 0.48 1.61 0.11 -1.61 1.07 -1.44c-0.04,-0.46 -0.06,-0.82 -0.06,-1.07 0,-0.26 0.09,-0.43 0.27,-0.54 0.54,-0.32 1.12,-0.84 1.77,-1.55l-0.33 1.44 1.61 -1.55c0.03,0.07 0.37,0.11 1.02,0.11l1.65 1.44 0.65 -2.03 -0.11 1.18 1.18 -0.43 0.58 1.39 1.23 -0.7 0.32 0.16 -0.21 1.34c0,0.07 0.06,0.3 0.16,0.69l1.72 -1.29c0.32,0.04 0.48,0.07 0.48,0.11 0,0.04 0.01,0.22 0.03,0.54 0.02,0.32 0.12,0.8 0.3,1.44 0.53,-0.36 0.87,-0.5 1.01,-0.43l-0.32 2.89 0.27 0.86 0.48 -1.5 1.07 8.62 0.75 -0.43 0.27 0.15zm-31.03 -13.91l-0.69 0.8c-0.04,0.06 -0.09,0.44 -0.16,1.12l0.64 -0.75 0.22 -1.18zm6.25 1.61c-0.64,0.64 -1.05,1.21 -1.22,1.71l0.32 0.91 0.05 0 -0.11 -0.91 0.96 -1.71zm14.87 2.4l-0.21 -1.18 0.06 -0.64c0,-0.04 -0.09,-0.09 -0.27,-0.16l-0.38 1.4 0.16 0.32 0.64 0.26zm0.7 1.18l-0.65 -0.21 -0.53 0.1c0,0.5 0.15,0.78 0.48,0.86l0.7 -0.75zm-14.66 0.37l-0.43 -0.11 -0.8 0.27 0.32 0.53 0.91 -0.69zm-7.49 5.09l-0.43 -0.28 -0.11 0.06 -0.96 1.61 1.12 -0.26 0.37 -1.12zm0.43 1.65l-0.59 0.27c-0.21,0 -0.32,0.36 -0.32,1.07l0.91 -1.34zm-0.11 2.63c0,-0.76 -0.07,-1.13 -0.22,-1.13l-0.37 1.13 0.59 0zm14.76 -12.63l-0.9 1.65 0.27 -1.5 0.64 -0.16zm-15.62 1.71c-0.17,0.47 -0.28,0.99 -0.32,1.55l-0.37 0.48c0.07,-0.15 0.03,-0.5 -0.11,-1.07l0.16 -0.48 0.64 -0.49zm0 5.24l-0.43 0.49 -0.58 -0.21 0.27 -0.75 0.75 0.47z"/>
 </g>
</svg>